<?xml version="1.0" encoding="UTF-8" standalone="no"?>
<!-- Created with Inkscape (http://www.inkscape.org/) -->

<svg
   width="210mm"
   height="297mm"
   viewBox="0 0 210 297"
   version="1.1"
   id="svg5"
   inkscape:version="1.2 (dc2aedaf03, 2022-05-15)"
   sodipodi:docname="MRREESE.svg"
   xmlns:inkscape="http://www.inkscape.org/namespaces/inkscape"
   xmlns:sodipodi="http://sodipodi.sourceforge.net/DTD/sodipodi-0.dtd"
   xmlns:xlink="http://www.w3.org/1999/xlink"
   xmlns="http://www.w3.org/2000/svg"
   xmlns:svg="http://www.w3.org/2000/svg">
  <sodipodi:namedview
     id="namedview7"
     pagecolor="#ffffff"
     bordercolor="#666666"
     borderopacity="1.0"
     inkscape:showpageshadow="2"
     inkscape:pageopacity="0.0"
     inkscape:pagecheckerboard="0"
     inkscape:deskcolor="#d1d1d1"
     inkscape:document-units="mm"
     showgrid="false"
     inkscape:zoom="0.5946522"
     inkscape:cx="170.68801"
     inkscape:cy="969.47426"
     inkscape:window-width="1920"
     inkscape:window-height="1051"
     inkscape:window-x="-9"
     inkscape:window-y="-9"
     inkscape:window-maximized="1"
     inkscape:current-layer="layer1" />
  <defs
     id="defs2">
    <inkscape:path-effect
       effect="powerclip"
       id="path-effect24912"
       is_visible="true"
       lpeversion="1"
       inverse="true"
       flatten="false"
       hide_clip="false"
       message="Use fill-rule evenodd on &lt;b&gt;fill and stroke&lt;/b&gt; dialog if no flatten result after convert clip to paths." />
    <linearGradient
       inkscape:collect="always"
       id="linearGradient10707">
      <stop
         style="stop-color:#694728;stop-opacity:1;"
         offset="0.57723576"
         id="stop10703" />
      <stop
         style="stop-color:#694728;stop-opacity:0;"
         offset="1"
         id="stop10705" />
    </linearGradient>
    <linearGradient
       inkscape:collect="always"
       xlink:href="#linearGradient10707"
       id="linearGradient10709"
       x1="118.81002"
       y1="172.08691"
       x2="127.9646"
       y2="172.08691"
       gradientUnits="userSpaceOnUse"
       gradientTransform="matrix(1,0,0,0.87821976,42.833392,-96.320616)" />
    <linearGradient
       inkscape:collect="always"
       xlink:href="#linearGradient10707"
       id="linearGradient20075"
       gradientUnits="userSpaceOnUse"
       gradientTransform="matrix(1,0,0,0.76707413,-72.756986,-12.214353)"
       x1="118.81002"
       y1="172.08691"
       x2="127.9646"
       y2="172.08691" />
    <clipPath
       clipPathUnits="userSpaceOnUse"
       id="clipPath24908">
      <circle
         style="display:none;fill:#ffffff;fill-opacity:1;stroke-width:0.500999;paint-order:markers fill stroke"
         id="circle24910"
         cx="41.963207"
         cy="174.03127"
         r="2.5583932"
         d="m 44.5216,174.03127 a 2.5583932,2.5583932 0 0 1 -2.558393,2.55839 2.5583932,2.5583932 0 0 1 -2.558393,-2.55839 2.5583932,2.5583932 0 0 1 2.558393,-2.5584 2.5583932,2.5583932 0 0 1 2.558393,2.5584 z" />
      <path
         id="lpe_path-effect24912"
         style="fill:#ffffff;fill-opacity:1;stroke-width:0.500999;paint-order:markers fill stroke"
         class="powerclip"
         d="m 34.07111,166.13917 h 15.784194 v 15.78419 H 34.07111 Z m 10.45049,7.8921 a 2.5583932,2.5583932 0 0 0 -2.558393,-2.5584 2.5583932,2.5583932 0 0 0 -2.558393,2.5584 2.5583932,2.5583932 0 0 0 2.558393,2.55839 2.5583932,2.5583932 0 0 0 2.558393,-2.55839 z" />
    </clipPath>
  </defs>
  <g
     inkscape:label="Layer 1"
     inkscape:groupmode="layer"
     id="layer1">
    <path
       style="fill:#393c50;fill-opacity:1;stroke-width:0.500999;paint-order:markers fill stroke"
       d="m 46.588167,218.94783 c -0.333704,1.39272 6.40599,34.99672 5.462133,39.46115 -0.943856,4.46444 -0.690232,11.14658 0.811435,13.32852 1.501666,2.18191 5.406053,17.8718 4.705106,29.22109 -0.680575,11.01941 -1.98641,18.19821 -1.98641,18.19821 l 21.50044,0.84654 c 0,0 0.3706,-46.54997 1.194669,-61.94467 0.197697,-3.69324 0.112322,-4.49586 0.612412,-9.23074 0.57525,-5.44651 8.857224,-11.06276 8.195158,-30.48022 z"
       id="path32532"
       sodipodi:nodetypes="csssccsscc" />
    <path
       style="fill:#050507;fill-opacity:1;stroke-width:0.500999;paint-order:markers fill stroke"
       d="m 51.88046,148.57451 c 0,0 13.164594,-11.38726 23.341861,-3.31617 0.06979,0.0554 0.0011,0.0168 0.0011,0.0168 l -8.327562,5.93843 z"
       id="path31036"
       sodipodi:nodetypes="csccc" />
    <path
       style="fill:#ffdbb6;fill-opacity:1;stroke-width:0.500999;paint-order:markers fill stroke"
       d="m 50.968219,143.4661 c 0.196638,0.11798 3.460805,4.4999 2.988879,7.43287 -0.47193,2.93296 -0.47193,2.93296 -0.47193,2.93296 l 22.455907,-2.93296 c 0,0 -4.090043,-10.51462 1.297803,-18.88423 5.387842,-8.36961 -26.270659,11.45136 -26.270659,11.45136 z"
       id="path30965" />
    <path
       style="fill:#505571;fill-opacity:1;stroke-width:0.500999;paint-order:markers fill stroke"
       d="m 52.108713,151.79225 c 0,0 -2.223763,0.3576 -2.870896,1.56107 -6.157423,11.45088 -10.946493,35.6204 -9.28125,46.25236 2.664103,17.00932 8.180086,17.26243 8.180086,17.26243 l 38.698093,-0.6342 c 0,0 8.17903,-39.97483 -9.615532,-66.38613 -2.462592,-3.65507 -25.110501,1.94447 -25.110501,1.94447 z"
       id="path31101"
       sodipodi:nodetypes="cssccsc" />
    <path
       style="fill:#f7d4b0;fill-opacity:1;stroke-width:0.500999;paint-order:markers fill stroke"
       d="m 47.66611,143.39977 c 0,0 1.424881,0.67479 3.811495,1.50822 3.972063,1.38708 4.083949,0.46777 5.971661,-0.12214 2.280985,-0.62924 3.933339,-1.79517 8.495309,-3.85342 2.523442,-1.47019 4.215381,0.0984 13.417978,-10.93333 9.202594,-11.03173 -31.696443,13.40067 -31.696443,13.40067 z"
       id="path28187"
       sodipodi:nodetypes="csccsc" />
    <path
       style="fill:#ffdbb6;fill-opacity:1;stroke-width:0.500999;paint-order:markers fill stroke"
       d="m 163.759,45.317423 c -0.23596,1.0016 -1.57309,8.08191 -2.04502,8.77267 -0.47193,0.69075 1.49444,2.21043 1.33713,4.00641 -0.15731,1.79598 -1.80906,2.41767 -2.91023,3.38473 -1.10116,0.96707 -4.71928,3.52288 -4.71928,4.6281 0,1.10521 5.0339,1.93413 5.19121,2.90119 0.15731,0.96706 0.45036,1.76098 -0.15731,2.07229 -0.47193,0.24176 0.31462,2.01183 1.17982,2.2277 1.43555,0.35816 0.66458,-0.81076 0.66458,-0.81076 0,0 -1.29382,0.29269 -1.52978,1.05252 -0.23597,0.75984 -0.0787,0.96707 -0.0787,0.96707 0,0 1.10117,0.93252 1.33714,1.27791 0.23596,0.34538 -0.0787,2.88391 -0.0787,3.64375 0,0.75984 0.7079,3.03934 2.20233,3.31565 1.49444,0.2763 4.44805,0.41689 22.86882,-8.36692 4.00444,-2.05146 7.78642,-17.09546 8.00889,-18.75616 0.22247,-1.66071 3.67074,-12.6018 0.77864,-13.3833 -2.8921,-0.78151 -21.0992,-15.04443 -31.26307,1.13302 -0.25563,0.43172 -0.57021,0.93253 -0.78651,1.93413 z"
       id="path245"
       sodipodi:nodetypes="cssssssscscssscsscc" />
    <path
       style="fill:#ffa276;fill-opacity:1;stroke-width:0.500999;paint-order:markers fill stroke"
       d="m 161.57682,73.358433 c -0.34517,-0.57569 -1.21999,-0.11092 -0.91006,1.18155 0.0893,0.24444 1.70332,-0.004 0.91006,-1.18155 z"
       id="path3813"
       sodipodi:nodetypes="ccc" />
    <path
       style="fill:#ffc78f;fill-opacity:1;stroke-width:0.500999;paint-order:markers fill stroke"
       d="m 156.49346,66.828893 c -0.0192,-0.20279 2.24793,-1.18429 3.66008,-0.47859 1.41217,0.70572 0.49954,2.03602 -0.77812,1.63045 -1.27767,-0.40558 -2.88196,-1.15186 -2.88196,-1.15186 z"
       id="path13596" />
    <path
       style="fill:#605244;fill-opacity:1;stroke-width:0.500999;paint-order:markers fill stroke"
       d="m 157.31894,66.853673 c 0.61255,-0.0468 2.21057,-0.49119 2.7166,0.28069 0.50603,0.77186 -0.18643,0.95899 -2.7166,-0.28069 z"
       id="path3815" />
    <path
       style="fill:#c0c0c0;fill-opacity:1;stroke-width:0.500999;paint-order:markers fill stroke"
       d="m 164.86923,56.310323 c 0,0 -0.57947,1.20287 -0.13169,1.8737 0.44776,0.67082 0.39509,0.60143 0.39509,0.60143 l 2.84468,-1.27226 z"
       id="path5914" />
    <ellipse
       style="fill:#47894d;fill-opacity:1;stroke-width:0.500999;paint-order:markers fill stroke"
       id="path8362"
       cx="165.38617"
       cy="57.597256"
       rx="0.35853019"
       ry="1.1695108" />
    <ellipse
       style="fill:#696969;fill-opacity:1;stroke-width:0.500999;paint-order:markers fill stroke"
       id="path8362-2"
       cx="165.37379"
       cy="57.570339"
       rx="0.26254013"
       ry="1.0386565" />
    <path
       style="fill:#ffa276;fill-opacity:1;stroke-width:0.500999;paint-order:markers fill stroke"
       d="m 160.7013,74.579773 c 0,0 0.92419,0.0518 1.3568,-0.0863 0.4326,-0.13814 0.44243,-0.46625 0.44243,-0.46625 0,0 -0.15731,-0.57852 -0.71773,-0.63896 -0.56041,-0.0604 -1.0815,1.19156 -1.0815,1.19156 z"
       id="path9333" />
    <path
       style="fill:#ffa276;fill-opacity:1;stroke-width:0.500999;paint-order:markers fill stroke"
       d="m 160.46534,71.117343 c 0,0 -0.4326,1.78734 1.86805,2.4522 0.20646,0.0518 0.15731,0.44899 0.15731,0.44899 0,0 -2.77258,-1.04478 -2.15317,-2.84939 0.059,-0.10361 0.12781,-0.0518 0.12781,-0.0518 z"
       id="path9473" />
    <path
       style="fill:url(#linearGradient10709);fill-opacity:1;stroke-width:0.500999;paint-order:markers fill stroke"
       d="m 162.54578,55.750363 c -0.19663,-1.10522 1.69108,-2.24497 5.8991,-0.0691 1.21915,0.58714 1.02251,0.89799 1.53377,0.86345 0.51125,-0.0345 0.94385,-0.31084 0.78655,-0.86345 -0.15732,-0.55261 -9.79251,-5.31886 -9.08462,-0.41446 0.23596,0.86345 0.8652,0.48354 0.8652,0.48354 z"
       id="path9475" />
    <path
       style="fill:#463d36;fill-opacity:1;stroke-width:0.500998;paint-order:markers fill stroke"
       d="m 164.55538,56.199203 c 0.1868,0.14479 0.45226,0.21719 0.98318,0.41627 0.53092,0.19909 2.22199,0.80541 2.34981,0.85065 0.12781,0.0453 -2.88073,-1.25787 -3.19535,-1.30312 -0.31462,-0.0453 -0.13764,0.0362 -0.13764,0.0362 z"
       id="path10711" />
    <path
       style="fill:#463d36;fill-opacity:1;stroke-width:0.500998;paint-order:markers fill stroke"
       d="m 164.89827,58.870493 c 0,-0.2188 0.46528,-0.19228 0.98318,-0.41627 0.53092,-0.22962 1.97171,-0.92141 2.09953,-0.96666 0.12781,-0.0453 -2.63045,1.37388 -2.94507,1.41913 -0.31462,0.0453 -0.13764,-0.0362 -0.13764,-0.0362 z"
       id="path10711-4"
       sodipodi:nodetypes="sscccs" />
    <path
       style="fill:#a96f53;fill-opacity:1;stroke-width:0.500999;paint-order:markers fill stroke"
       d="m 181.92823,60.514163 c 0.23596,-0.41446 1.7304,-5.87147 6.44968,-3.93734 1.96636,1.03614 -0.15731,6.49315 -0.15731,6.49315 0,0 -0.0787,0.96706 -0.78655,1.1743 -0.70789,0.20722 1.25848,-3.79919 -0.78654,-5.94054 -2.04502,-2.14137 -4.71928,2.21043 -4.71928,2.21043 z"
       id="path15364" />
    <path
       style="fill:#6d4a2a;fill-opacity:1;stroke-width:0.500999;paint-order:markers fill stroke"
       d="m 174.23008,46.436973 c 1.49444,1.17429 -1.89768,4.40656 -0.79656,5.44269 1.10117,1.03614 4.64063,1.31245 4.32601,5.18071 -0.31462,3.86827 -0.39327,4.28272 -0.39327,4.28272 0,0 2.98887,1.24337 3.69676,-1.03614 0.7079,-2.27951 9.12395,-3.79918 8.73067,-1.7269 -0.39327,2.07228 0.94386,6.42407 -0.62924,8.70358 -1.57309,2.27951 -0.0787,3.24657 0.62924,3.31566 0.70789,0.0691 19.17262,-10.03824 8.10143,-25.76538 -8.56844,-12.17187 -17.49286,-10.68624 -20.74315,-8.94781 -1.11534,0.59654 -3.51698,4.54145 -3.61348,5.8365 -0.28524,1.47099 -0.51601,2.53625 0.69159,4.71437 z"
       id="path18165"
       sodipodi:nodetypes="csscsssssscc" />
    <path
       style="fill:#ed9d79;fill-opacity:1;stroke-width:0.500999;paint-order:markers fill stroke"
       d="m 182.43948,59.685243 c 1.06184,-0.75983 0.90453,3.24658 0.47193,4.24818 -0.4326,1.00161 -0.94385,2.24498 -0.94385,2.24498 0,0 4.67995,-0.82892 5.6238,-2.1759 0.94386,-1.34698 1.76973,-5.11163 1.76973,-5.11163 l -1.21914,-2.65943 -2.83157,-0.0691 -2.51695,1.79598 z"
       id="path16313" />
    <path
       style="fill:#754d39;fill-opacity:1;stroke-width:0.500999;paint-order:markers fill stroke"
       d="m 182.30183,58.925413 c 0.23597,0.41446 1.17982,0.82892 1.49444,0.98433 0.31462,0.15543 0.60958,0.62169 0.60958,0.62169 0,0 -1.25848,-0.51807 -1.75007,-0.46626 -0.49159,0.0518 -0.45227,0 -0.45227,0 0,0 0.4326,-0.77711 0.0983,-1.13976 z"
       id="path17026" />
    <path
       style="fill:#ffb99b;fill-opacity:1;stroke-width:0.500999;paint-order:markers fill stroke"
       d="m 183.38334,57.647503 c 0.70789,0 6.13506,1.89959 4.09004,5.45701 -1.49444,2.34859 0.66857,0.17269 0.66857,0.17269 0,0 2.04502,-5.52609 -4.75861,-5.6297 z"
       id="path17099" />
    <path
       style="fill:#ffb382;fill-opacity:1;stroke-width:0.500999;paint-order:markers fill stroke"
       d="m 181.53495,60.928623 c 0,-2.00321 1.5731,-5.59517 5.58448,-5.38794 4.01139,0.20723 4.1687,9.8088 -3.38215,11.19033 -1.7304,0.20722 -2.28098,-0.55261 -1.96636,-0.75985 0.31462,-0.20722 8.33739,-0.89798 6.52833,-8.42727 -0.8652,-2.9012 -6.0564,-0.13815 -5.97775,3.24658 0.15731,1.24336 -0.78655,0.13815 -0.78655,0.13815 z"
       id="path14354" />
    <path
       style="fill:#754d39;fill-opacity:1;stroke-width:0.500999;paint-order:markers fill stroke"
       d="m 183.10804,62.655523 c 0.47193,-0.51808 -0.0393,-1.55422 0.4326,-1.79598 0.47193,-0.24177 2.94955,0.93253 3.02821,1.51968 0.0786,0.58714 -0.11799,0.79437 -0.11799,0.79437 0,0 -3.38215,0.86345 -3.34282,-0.51807 z"
       id="path15429" />
    <path
       style="fill:#ba9f83;fill-opacity:1;stroke-width:0.500999;paint-order:markers fill stroke"
       d="m 160.88099,67.111953 c 0.55617,0.39075 4.78308,5.8613 2.61401,11.283 -0.44494,0.92803 3.5595,-5.4217 -2.61401,-11.283 z"
       id="path19523" />
    <path
       style="fill:#ffdbb6;fill-opacity:1;stroke-width:0.500999;paint-order:markers fill stroke"
       d="m 48.613563,111.59314 c -0.23596,0.87483 -2.018028,6.96421 -2.489958,7.56755 -0.47193,0.60334 1.49444,1.93068 1.33713,3.49937 -0.15731,1.56869 -1.80906,2.1117 -2.91023,2.95637 -1.10116,0.84467 -3.858258,2.81712 -3.773787,4.18465 0.09477,1.53432 4.088407,1.54708 4.245717,2.39175 0.15731,0.84467 0.45036,1.53811 -0.15731,1.81002 -0.47193,0.21116 0.31462,1.75722 1.17982,1.94576 1.43555,0.31284 0.66458,-0.70814 0.66458,-0.70814 0,0 -1.29382,0.25564 -1.52978,0.91931 -0.23597,0.66367 -0.0787,0.84468 -0.0787,0.84468 0,0 1.10117,0.81451 1.33714,1.11618 0.23596,0.30166 -0.0787,2.51893 -0.0787,3.1826 0,0.66369 0.7079,2.65469 2.20233,2.89603 1.49444,0.24134 4.44805,0.36413 22.86882,-7.30802 4.00444,-1.79183 10.804003,-7.2916 10.919112,-14.90678 0.107433,-7.10732 1.158526,-6.22525 -2.473191,-13.13739 -3.423957,-6.51672 -23.093515,-9.27905 -30.476523,1.0567 -0.25563,0.3771 -0.57021,0.81451 -0.78651,1.68936 z"
       id="path245-0"
       sodipodi:nodetypes="cssssssscscssscssccc" />
    <path
       style="fill:#ffa276;fill-opacity:1;stroke-width:0.500999;paint-order:markers fill stroke"
       d="m 45.986445,135.99047 c -0.34517,-0.50283 -1.21999,-0.0969 -0.91006,1.03202 0.0893,0.21349 1.70332,-0.003 0.91006,-1.03202 z"
       id="path3813-5"
       sodipodi:nodetypes="ccc" />
    <path
       style="fill:#ffc78f;fill-opacity:1;stroke-width:0.500999;paint-order:markers fill stroke"
       d="m 41.626109,130.52445 c -0.0192,-0.17714 2.24793,-1.03442 3.66008,-0.41802 1.41217,0.61641 0.49954,1.77834 -0.77812,1.4241 -1.27767,-0.35426 -2.88196,-1.00608 -2.88196,-1.00608 z"
       id="path13596-7" />
    <path
       style="fill:#605244;fill-opacity:1;stroke-width:0.500999;paint-order:markers fill stroke"
       d="m 42.451589,130.54608 c 0.61255,-0.0409 2.21057,-0.42901 2.7166,0.24518 0.50603,0.67416 -0.18643,0.83762 -2.7166,-0.24518 z"
       id="path3815-0" />
    <path
       style="fill:#c0c0c0;fill-opacity:1;stroke-width:0.500999;paint-order:markers fill stroke"
       d="m 48.945152,121.09993 c 0,0 -0.57947,1.05064 -0.13169,1.63657 0.44776,0.58593 0.39509,0.52532 0.39509,0.52532 l 2.84468,-1.11125 z"
       id="path5914-0" />
    <ellipse
       style="fill:#47894d;fill-opacity:1;stroke-width:0.500999;paint-order:markers fill stroke"
       id="path8362-5"
       cx="49.462097"
       cy="122.22402"
       rx="0.35853019"
       ry="1.0215001" />
    <ellipse
       style="fill:#696969;fill-opacity:1;stroke-width:0.500999;paint-order:markers fill stroke"
       id="path8362-2-8"
       cx="49.449722"
       cy="122.20049"
       rx="0.26254013"
       ry="0.9072063" />
    <path
       style="fill:#ffa276;fill-opacity:1;stroke-width:0.500999;paint-order:markers fill stroke"
       d="m 45.110925,137.05724 c 0,0 0.92419,0.0453 1.3568,-0.0755 0.4326,-0.12067 0.44243,-0.40725 0.44243,-0.40725 0,0 -0.15731,-0.50531 -0.71773,-0.5581 -0.56041,-0.0527 -1.0815,1.04076 -1.0815,1.04076 z"
       id="path9333-5" />
    <path
       style="fill:#ffa276;fill-opacity:1;stroke-width:0.500999;paint-order:markers fill stroke"
       d="m 44.874965,134.03301 c 0,0 -0.4326,1.56114 1.86805,2.14185 0.20646,0.0453 0.15731,0.39217 0.15731,0.39217 0,0 -2.77258,-0.91255 -2.15317,-2.48877 0.059,-0.0906 0.12781,-0.0453 0.12781,-0.0453 z"
       id="path9473-3" />
    <path
       style="fill:url(#linearGradient20075);fill-opacity:1;stroke-width:0.500999;paint-order:markers fill stroke"
       d="m 46.955405,120.61084 c -0.19663,-0.96534 1.69108,-1.96085 5.8991,-0.0604 1.21915,0.51283 1.02251,0.78435 1.53377,0.75417 0.51125,-0.0302 0.94385,-0.2715 0.78655,-0.75417 -0.15732,-0.48268 -9.79251,-4.64573 -9.08462,-0.36201 0.23596,0.75417 0.8652,0.42235 0.8652,0.42235 z"
       id="path9475-6" />
    <path
       style="fill:#463d36;fill-opacity:1;stroke-width:0.500999;paint-order:markers fill stroke"
       d="m 48.631302,121.00287 c 0.1868,0.12647 0.45226,0.1897 0.98318,0.3636 0.53092,0.1739 2.22199,0.70347 2.34981,0.743 0.12781,0.0395 -2.88073,-1.09868 -3.19535,-1.13821 -0.31462,-0.0396 -0.13764,0.0316 -0.13764,0.0316 z"
       id="path10711-1" />
    <path
       style="fill:#463d36;fill-opacity:1;stroke-width:0.500999;paint-order:markers fill stroke"
       d="m 48.974192,123.3361 c 0,-0.19112 0.46528,-0.16795 0.98318,-0.3636 0.53092,-0.20055 1.97171,-0.80479 2.09953,-0.84432 0.12781,-0.0396 -2.63045,1.20001 -2.94507,1.23954 -0.31462,0.0396 -0.13764,-0.0316 -0.13764,-0.0316 z"
       id="path10711-4-8"
       sodipodi:nodetypes="sscccs" />
    <path
       style="fill:#a96f53;fill-opacity:1;stroke-width:0.500999;paint-order:markers fill stroke"
       d="m 66.337855,124.77175 c 0.23596,-0.36201 1.7304,-5.12839 6.44968,-3.43904 1.96636,0.905 -0.15731,5.67139 -0.15731,5.67139 0,0 -0.0787,0.84466 -0.78655,1.02568 -0.70789,0.181 1.25848,-3.31837 -0.78654,-5.18872 -2.04502,-1.87035 -4.71928,1.93069 -4.71928,1.93069 z"
       id="path15364-6" />
    <path
       style="fill:#000000;fill-opacity:1;stroke-width:0.500999;paint-order:markers fill stroke"
       d="m 50.154329,119.40682 c 0.475994,0 3.004397,0.38222 4.02884,0.38222 1.024445,0 19.490848,1.13945 20.076329,1.51786 0.585478,0.37841 1.419736,1.82134 1.475354,2.50925 0.05562,0.68792 -0.19466,0.68792 -0.556173,0.68792 -0.361511,0 -0.670404,-1.265 -0.919181,-1.7506 -0.24878,-0.48559 -0.220972,-0.73961 -0.971804,-0.81076 -0.750835,-0.0711 -19.437186,-1.52252 -19.994401,-1.52252 -0.557212,0 -0.991341,0.5391 -0.991341,0.5391 0,0 -0.573026,-1.21892 -2.147623,-1.55247 z"
       id="path24916" />
    <path
       style="fill:#ed9d79;fill-opacity:1;stroke-width:0.500999;paint-order:markers fill stroke"
       d="m 66.849105,124.04773 c 1.06184,-0.66367 0.90453,2.8357 0.47193,3.71054 -0.4326,0.87486 -0.94385,1.96086 -0.94385,1.96086 0,0 4.67995,-0.72401 5.6238,-1.90052 0.94386,-1.17652 1.76973,-4.46472 1.76973,-4.46472 l -1.21914,-2.32285 -2.83157,-0.0604 -2.51695,1.5687 z"
       id="path16313-0" />
    <path
       style="fill:#754d39;fill-opacity:1;stroke-width:0.500999;paint-order:markers fill stroke"
       d="m 66.711455,123.38406 c 0.23597,0.36201 1.17982,0.72402 1.49444,0.85977 0.31462,0.13574 0.60958,0.54299 0.60958,0.54299 0,0 -1.25848,-0.4525 -1.75007,-0.40725 -0.49159,0.0453 -0.45227,0 -0.45227,0 0,0 0.4326,-0.67874 0.0983,-0.99551 z"
       id="path17026-5" />
    <path
       style="fill:#ffb99b;fill-opacity:1;stroke-width:0.500999;paint-order:markers fill stroke"
       d="m 67.792965,122.26788 c 0.70789,0 6.13506,1.65919 4.09004,4.76639 -1.49444,2.05135 0.66857,0.15082 0.66857,0.15082 0,0 2.04502,-4.82671 -4.75861,-4.91721 z"
       id="path17099-4" />
    <path
       style="fill:#ffb382;fill-opacity:1;stroke-width:0.500999;paint-order:markers fill stroke"
       d="m 65.944575,125.13376 c 0,-1.7497 1.5731,-4.88707 5.58448,-4.70606 4.01139,0.18101 4.1687,8.56742 -3.38215,9.7741 -1.7304,0.181 -2.28098,-0.48267 -1.96636,-0.66368 0.31462,-0.181 8.33739,-0.78433 6.52833,-7.36074 -0.8652,-2.53402 -6.0564,-0.12066 -5.97775,2.8357 0.15731,1.08601 -0.78655,0.12068 -0.78655,0.12068 z"
       id="path14354-4" />
    <path
       style="fill:#754d39;fill-opacity:1;stroke-width:0.500999;paint-order:markers fill stroke"
       d="m 67.517665,126.64209 c 0.47193,-0.4525 -0.0393,-1.35751 0.4326,-1.56868 0.47193,-0.21116 2.94955,0.81452 3.02821,1.32736 0.0786,0.51283 -0.11799,0.69384 -0.11799,0.69384 0,0 -3.38215,0.75417 -3.34282,-0.45252 z"
       id="path15429-0" />
    <path
       style="fill:#ae7841;fill-opacity:1;stroke-width:0.500999;paint-order:markers fill stroke"
       d="m 45.173609,133.49041 c 0,0 3.22484,0.93905 3.460803,2.21347 0.235966,1.27441 0.550585,3.45433 0,4.25923 -0.550582,0.80489 -1.219147,1.7104 -1.612419,1.64333 -0.393274,-0.0671 -0.314618,-1.44211 -0.314618,-1.44211 l -0.314619,0.0335 c 0,0 -0.58991,3.62203 2.04502,3.9574 2.634933,0.33538 3.932732,-6.27147 2.04502,-9.6252 -1.061836,-1.74394 -5.545153,-2.51529 -5.545153,-2.51529 z"
       id="path20160" />
    <path
       style="fill:#000000;fill-opacity:1;stroke-width:0.500999;paint-order:markers fill stroke"
       d="m 47.257957,121.78591 0.07866,0.80489 0.550582,-0.0335 -0.07865,-0.87197 z"
       id="path24509" />
    <path
       style="fill:#000000;fill-opacity:1;stroke-width:0.541334;paint-order:markers fill stroke"
       id="path24832"
       clip-path="url(#clipPath24908)"
       inkscape:path-effect="#path-effect24912"
       sodipodi:type="arc"
       sodipodi:cx="41.963207"
       sodipodi:cy="174.03127"
       sodipodi:rx="2.8920968"
       sodipodi:ry="2.8920968"
       d="m 44.855304,174.03127 a 2.8920968,2.8920968 0 0 1 -2.892097,2.89209 2.8920968,2.8920968 0 0 1 -2.892097,-2.89209 2.8920968,2.8920968 0 0 1 2.892097,-2.8921 2.8920968,2.8920968 0 0 1 2.892097,2.8921 z"
       transform="matrix(0.89269198,0,0,0.95949116,12.69411,-44.799698)" />
    <path
       style="fill:#e5c5a4;fill-opacity:1;stroke-width:0.500999;paint-order:markers fill stroke"
       d="m 41.474631,130.63406 c -0.01392,-0.50986 0.45884,-1.4703 1.682422,-1.49401 1.223579,-0.0237 1.654611,0.0949 1.654611,0.0949 0,0 -3.267514,-1.11457 -3.337033,1.39916 z"
       id="path25044" />
    <path
       style="fill:#9d6449;fill-opacity:1;stroke-width:0.500999;paint-order:markers fill stroke"
       d="m 45.414488,135.7777 c 0,0 0.521086,0.37893 0.904528,0.48792 0.383443,0.109 0.383443,0.109 0.383443,0.109 0,0 -0.859965,-0.0117 -1.287971,-0.59692 z"
       id="path25802" />
    <path
       style="fill:#3e4258;fill-opacity:1;stroke-width:0.500999;paint-order:markers fill stroke"
       d="m 51.99073,153.69121 c -1.179819,0.70789 -8.720516,15.94138 -9.276688,34.74001 -0.55617,18.79863 6.326462,27.94767 6.326462,27.94767 l -0.264181,0.58398 -1.593648,-0.4096 c 0,0 -5.711296,-8.2825 -6.133197,-16.33119 -0.504349,-9.62159 -0.83821,-22.58061 7.726845,-45.38367 1.056727,-1.94661 1.334812,-2.05784 1.334812,-2.05784 0,0 0.834261,-1.00111 2.725246,-1.05673 1.890987,-0.0556 -0.845651,1.96737 -0.845651,1.96737 z"
       id="path33953"
       sodipodi:nodetypes="cscccsccsc" />
    <path
       style="fill:#4e5469;fill-opacity:1;stroke-width:0.500999;paint-order:markers fill stroke"
       d="m 51.875601,148.57865 c 3.129234,0.55059 21.247793,-1.96636 22.316386,-2.67426 1.068592,-0.70789 1.068592,-0.62923 1.068592,-0.62923 l 1.978295,5.11255 c 0,0 -14.961498,4.68111 -25.653452,3.12874 0.372527,-1.57309 0.290179,-4.9378 0.290179,-4.9378 z"
       id="path28510"
       sodipodi:nodetypes="cscccc" />
    <path
       style="fill:#1b1c24;fill-opacity:1;stroke-width:0.500999;paint-order:markers fill stroke"
       d="m 51.567961,153.49457 c 0,0 10.16718,1.84439 25.573156,-3.27239 0.278087,0.55617 0.166851,0.38932 0.166851,0.38932 0,0 -14.175937,5.4179 -25.740007,2.88307 z"
       id="path31235"
       sodipodi:nodetypes="cccc" />
    <path
       style="fill:#050507;fill-opacity:1;stroke-width:0.500999;paint-order:markers fill stroke"
       d="m 47.016325,216.14769 39.779692,-0.11124 c 0,0 0.434697,0.46321 0.299139,1.95765 -0.13556,1.49444 -0.13556,1.12083 -0.13556,1.12083 l -40.159346,0.49159 c 0,0 -0.652318,-1.72645 0.216075,-3.45883 z"
       id="path31741" />
    <ellipse
       style="fill:#646464;fill-opacity:1;stroke-width:0.500999;paint-order:markers fill stroke"
       id="path34394"
       cx="98.750626"
       cy="129.8429"
       rx="0.40310511"
       ry="0.80621022"
       transform="rotate(19.671358)" />
    <ellipse
       style="fill:#646464;fill-opacity:1;stroke-width:0.500999;paint-order:markers fill stroke"
       id="path34394-3"
       cx="80.654144"
       cy="150.69936"
       rx="0.40310511"
       ry="0.80621022"
       transform="rotate(12.526536)" />
    <ellipse
       style="fill:#646464;fill-opacity:1;stroke-width:0.500999;paint-order:markers fill stroke"
       id="path34394-8"
       cx="80.267502"
       cy="160.47487"
       rx="0.40310511"
       ry="0.80621022"
       transform="rotate(12.526536)" />
    <ellipse
       style="fill:#646464;fill-opacity:1;stroke-width:0.500999;paint-order:markers fill stroke"
       id="path34394-5"
       cx="59.596436"
       cy="178.38094"
       rx="0.40310511"
       ry="0.80621022"
       transform="rotate(5.5209899)" />
    <ellipse
       style="fill:#646464;fill-opacity:1;stroke-width:0.500999;paint-order:markers fill stroke"
       id="path34394-56"
       cx="46.849754"
       cy="191.2617"
       rx="0.40310511"
       ry="0.80621022"
       transform="rotate(1.5935181)" />
    <ellipse
       style="fill:#646464;fill-opacity:1;stroke-width:0.500999;paint-order:markers fill stroke"
       id="path34394-9"
       cx="-4.8414602"
       cy="207.02838"
       rx="0.40310511"
       ry="0.80621022"
       transform="rotate(-13.180208)" />
    <ellipse
       style="fill:#646464;fill-opacity:1;stroke-width:0.500999;paint-order:markers fill stroke"
       id="path34394-86"
       cx="-38.88028"
       cy="212.17998"
       rx="0.40310511"
       ry="0.80621022"
       transform="rotate(-22.438313)"
       inkscape:transform-center-x="-0.11123449" />
  </g>
</svg>
