<?xml version="1.0" encoding="UTF-8" standalone="no"?>
<!-- Created with Inkscape (http://www.inkscape.org/) -->

<svg
   width="210mm"
   height="297mm"
   viewBox="0 0 210 297"
   version="1.1"
   id="svg5"
   inkscape:version="1.2 (dc2aedaf03, 2022-05-15)"
   sodipodi:docname="MRREESE.svg"
   xmlns:inkscape="http://www.inkscape.org/namespaces/inkscape"
   xmlns:sodipodi="http://sodipodi.sourceforge.net/DTD/sodipodi-0.dtd"
   xmlns:xlink="http://www.w3.org/1999/xlink"
   xmlns="http://www.w3.org/2000/svg"
   xmlns:svg="http://www.w3.org/2000/svg">
  <sodipodi:namedview
     id="namedview7"
     pagecolor="#ffffff"
     bordercolor="#666666"
     borderopacity="1.0"
     inkscape:showpageshadow="2"
     inkscape:pageopacity="0.0"
     inkscape:pagecheckerboard="0"
     inkscape:deskcolor="#d1d1d1"
     inkscape:document-units="mm"
     showgrid="false"
     inkscape:zoom="0.5946522"
     inkscape:cx="-39.518899"
     inkscape:cy="471.7043"
     inkscape:window-width="1920"
     inkscape:window-height="1051"
     inkscape:window-x="-9"
     inkscape:window-y="-9"
     inkscape:window-maximized="1"
     inkscape:current-layer="layer1" />
  <defs
     id="defs2">
    <inkscape:path-effect
       effect="powerclip"
       id="path-effect24912"
       is_visible="true"
       lpeversion="1"
       inverse="true"
       flatten="false"
       hide_clip="false"
       message="Use fill-rule evenodd on &lt;b&gt;fill and stroke&lt;/b&gt; dialog if no flatten result after convert clip to paths." />
    <linearGradient
       inkscape:collect="always"
       id="linearGradient10707">
      <stop
         style="stop-color:#694728;stop-opacity:1;"
         offset="0.57723576"
         id="stop10703" />
      <stop
         style="stop-color:#694728;stop-opacity:0;"
         offset="1"
         id="stop10705" />
    </linearGradient>
    <linearGradient
       inkscape:collect="always"
       xlink:href="#linearGradient10707"
       id="linearGradient10709"
       x1="118.81002"
       y1="172.08691"
       x2="127.9646"
       y2="172.08691"
       gradientUnits="userSpaceOnUse"
       gradientTransform="matrix(1,0,0,0.87821976,42.833392,-96.320616)" />
    <linearGradient
       inkscape:collect="always"
       xlink:href="#linearGradient10707"
       id="linearGradient20075"
       gradientUnits="userSpaceOnUse"
       gradientTransform="matrix(1,0,0,0.64164325,-80.765869,-15.257001)"
       x1="118.81002"
       y1="172.08691"
       x2="127.9646"
       y2="172.08691" />
    <clipPath
       clipPathUnits="userSpaceOnUse"
       id="clipPath24908">
      <circle
         style="display:none;fill:#ffffff;fill-opacity:1;stroke-width:0.500999;paint-order:markers fill stroke"
         id="circle24910"
         cx="41.963207"
         cy="174.03127"
         r="2.5583932"
         d="m 44.5216,174.03127 a 2.5583932,2.5583932 0 0 1 -2.558393,2.55839 2.5583932,2.5583932 0 0 1 -2.558393,-2.55839 2.5583932,2.5583932 0 0 1 2.558393,-2.5584 2.5583932,2.5583932 0 0 1 2.558393,2.5584 z" />
      <path
         id="lpe_path-effect24912"
         style="fill:#ffffff;fill-opacity:1;stroke-width:0.500999;paint-order:markers fill stroke"
         class="powerclip"
         d="m 34.07111,166.13917 h 15.784194 v 15.78419 H 34.07111 Z m 10.45049,7.8921 a 2.5583932,2.5583932 0 0 0 -2.558393,-2.5584 2.5583932,2.5583932 0 0 0 -2.558393,2.5584 2.5583932,2.5583932 0 0 0 2.558393,2.55839 2.5583932,2.5583932 0 0 0 2.558393,-2.55839 z" />
    </clipPath>
    <clipPath
       clipPathUnits="userSpaceOnUse"
       id="clipPath50489">
      <path
         style="fill:#eaa55d;fill-opacity:1;stroke-width:0.500999;paint-order:markers fill stroke"
         d="m 49.103566,109.8019 c 0.71706,-0.39327 23.57334,-15.141942 34.19172,10.56976 10.61838,25.7117 10.61838,25.7117 10.61838,25.7117 L 79.441207,97.453122 50.154329,101.07124 Z"
         id="path50491" />
    </clipPath>
  </defs>
  <g
     inkscape:label="Layer 1"
     inkscape:groupmode="layer"
     id="layer1">
    <path
       style="fill:#242532;fill-opacity:1;stroke-width:0.500999;paint-order:markers fill stroke"
       d="m 38.573512,181.94319 c -0.333704,1.21953 4.289323,30.64482 3.345466,34.55409 -0.943856,3.90928 -0.690232,9.76049 0.811435,11.6711 1.501666,1.91059 5.406053,15.64942 4.705106,25.58741 -0.680575,9.64913 -1.98641,15.93523 -1.98641,15.93523 l 22.029607,0.74128 c 0,0 4.603933,-40.76142 5.428002,-54.24176 0.197697,-3.23398 0.112322,-3.9368 0.612412,-8.08289 0.57525,-4.76923 6.211391,-9.68709 5.549325,-26.68996 z"
       id="path32532-4"
       sodipodi:nodetypes="csssccsscc" />
    <path
       style="fill:#71553f;fill-opacity:1;stroke-width:0.500999;paint-order:markers fill stroke"
       d="m 45.318977,269.61587 c 0,0 -10.788205,-0.15729 -11.640891,2.51696 -0.852683,2.67425 -1.796539,4.24735 0.09117,7.15757 6.371027,1.02251 25.550248,2.12367 29.640289,1.0225 4.090042,-1.10114 2.123677,-10.14643 2.123677,-10.14643 z"
       id="path50586"
       sodipodi:nodetypes="cscscc" />
    <path
       style="fill:#454861;fill-opacity:1;stroke-width:0.500999;paint-order:markers fill stroke"
       d="m 38.56098,181.94319 c -0.333704,1.21953 6.935157,30.64482 5.9913,34.55409 -0.943856,3.90928 -0.690232,9.76049 0.811435,11.6711 1.501666,1.91059 5.406053,15.64942 4.705106,25.58741 -0.680575,9.64913 -1.98641,15.93523 -1.98641,15.93523 l 20.971273,0.74128 c 0,0 4.603933,-40.76142 5.428002,-54.24176 0.197697,-3.23398 0.112322,-3.9368 0.612412,-8.08289 0.57525,-4.76923 4.623891,-9.68709 3.961825,-26.68996 z"
       id="path32532"
       sodipodi:nodetypes="csssccsscc" />
    <path
       style="fill:#050507;fill-opacity:1;stroke-width:0.500999;paint-order:markers fill stroke"
       d="m 43.927194,119.85464 c 0,0 13.133557,-10.64043 23.310824,-2.96477 0.06979,0.0527 0.0011,0.016 0.0011,0.016 l -8.352142,5.18048 z"
       id="path31036"
       sodipodi:nodetypes="csccc" />
    <path
       style="fill:#ffdbb6;fill-opacity:1;stroke-width:0.500999;paint-order:markers fill stroke"
       d="m 42.959336,115.30225 c 0.196638,0.10331 3.460805,3.94033 2.988879,6.50858 -0.47193,2.56824 -0.47193,2.56824 -0.47193,2.56824 l 22.455907,-2.56824 c 0,0 -4.090043,-9.20711 1.297803,-16.53595 5.387842,-7.328834 -26.270659,10.02737 -26.270659,10.02737 z"
       id="path30965" />
    <path
       style="fill:#604d1f;fill-opacity:1;stroke-width:0.500999;paint-order:markers fill stroke"
       d="m 44.09983,122.59303 c 0,0 -2.223763,0.31313 -2.870896,1.36695 -6.157423,10.02695 -10.946493,31.19095 -9.28125,40.50081 2.664103,14.89419 8.180086,15.11582 8.180086,15.11582 l 38.698093,-0.55533 c 0,0 8.17903,-35.0039 -9.615532,-58.13092 -2.462592,-3.20056 -25.110501,1.70267 -25.110501,1.70267 z"
       id="path31101"
       sodipodi:nodetypes="cssccsc" />
    <path
       style="fill:#eac9a7;fill-opacity:1;stroke-width:0.500999;paint-order:markers fill stroke"
       d="m 39.657227,114.91133 c 0,0 1.424881,0.56445 3.811495,1.26159 3.972063,1.16026 4.083949,0.39128 5.971661,-0.10216 2.280985,-0.52636 3.933339,-1.50163 8.495309,-3.22332 2.523442,-1.22979 4.215381,0.0823 13.417978,-9.14553 9.202594,-9.227844 -31.696443,11.20942 -31.696443,11.20942 z"
       id="path28187"
       sodipodi:nodetypes="csccsc" />
    <path
       style="fill:#ffdbb6;fill-opacity:1;stroke-width:0.500999;paint-order:markers fill stroke"
       d="m 163.759,45.317423 c -0.23596,1.0016 -1.57309,8.08191 -2.04502,8.77267 -0.47193,0.69075 1.49444,2.21043 1.33713,4.00641 -0.15731,1.79598 -1.80906,2.41767 -2.91023,3.38473 -1.10116,0.96707 -4.71928,3.52288 -4.71928,4.6281 0,1.10521 5.0339,1.93413 5.19121,2.90119 0.15731,0.96706 0.45036,1.76098 -0.15731,2.07229 -0.47193,0.24176 0.31462,2.01183 1.17982,2.2277 1.43555,0.35816 0.66458,-0.81076 0.66458,-0.81076 0,0 -1.29382,0.29269 -1.52978,1.05252 -0.23597,0.75984 -0.0787,0.96707 -0.0787,0.96707 0,0 1.10117,0.93252 1.33714,1.27791 0.23596,0.34538 -0.0787,2.88391 -0.0787,3.64375 0,0.75984 0.7079,3.03934 2.20233,3.31565 1.49444,0.2763 4.44805,0.41689 22.86882,-8.36692 4.00444,-2.05146 7.78642,-17.09546 8.00889,-18.75616 0.22247,-1.66071 3.67074,-12.6018 0.77864,-13.3833 -2.8921,-0.78151 -21.0992,-15.04443 -31.26307,1.13302 -0.25563,0.43172 -0.57021,0.93253 -0.78651,1.93413 z"
       id="path245"
       sodipodi:nodetypes="cssssssscscssscsscc" />
    <path
       style="fill:#ffa276;fill-opacity:1;stroke-width:0.500999;paint-order:markers fill stroke"
       d="m 161.57682,73.358433 c -0.34517,-0.57569 -1.21999,-0.11092 -0.91006,1.18155 0.0893,0.24444 1.70332,-0.004 0.91006,-1.18155 z"
       id="path3813"
       sodipodi:nodetypes="ccc" />
    <path
       style="fill:#ffc78f;fill-opacity:1;stroke-width:0.500999;paint-order:markers fill stroke"
       d="m 156.49346,66.828893 c -0.0192,-0.20279 2.24793,-1.18429 3.66008,-0.47859 1.41217,0.70572 0.49954,2.03602 -0.77812,1.63045 -1.27767,-0.40558 -2.88196,-1.15186 -2.88196,-1.15186 z"
       id="path13596" />
    <path
       style="fill:#605244;fill-opacity:1;stroke-width:0.500999;paint-order:markers fill stroke"
       d="m 157.31894,66.853673 c 0.61255,-0.0468 2.21057,-0.49119 2.7166,0.28069 0.50603,0.77186 -0.18643,0.95899 -2.7166,-0.28069 z"
       id="path3815" />
    <path
       style="fill:#c0c0c0;fill-opacity:1;stroke-width:0.500999;paint-order:markers fill stroke"
       d="m 164.86923,56.310323 c 0,0 -0.57947,1.20287 -0.13169,1.8737 0.44776,0.67082 0.39509,0.60143 0.39509,0.60143 l 2.84468,-1.27226 z"
       id="path5914" />
    <ellipse
       style="fill:#47894d;fill-opacity:1;stroke-width:0.500999;paint-order:markers fill stroke"
       id="path8362"
       cx="165.38617"
       cy="57.597256"
       rx="0.35853019"
       ry="1.1695108" />
    <ellipse
       style="fill:#696969;fill-opacity:1;stroke-width:0.500999;paint-order:markers fill stroke"
       id="path8362-2"
       cx="165.37379"
       cy="57.570339"
       rx="0.26254013"
       ry="1.0386565" />
    <path
       style="fill:#ffa276;fill-opacity:1;stroke-width:0.500999;paint-order:markers fill stroke"
       d="m 160.7013,74.579773 c 0,0 0.92419,0.0518 1.3568,-0.0863 0.4326,-0.13814 0.44243,-0.46625 0.44243,-0.46625 0,0 -0.15731,-0.57852 -0.71773,-0.63896 -0.56041,-0.0604 -1.0815,1.19156 -1.0815,1.19156 z"
       id="path9333" />
    <path
       style="fill:#ffa276;fill-opacity:1;stroke-width:0.500999;paint-order:markers fill stroke"
       d="m 160.46534,71.117343 c 0,0 -0.4326,1.78734 1.86805,2.4522 0.20646,0.0518 0.15731,0.44899 0.15731,0.44899 0,0 -2.77258,-1.04478 -2.15317,-2.84939 0.059,-0.10361 0.12781,-0.0518 0.12781,-0.0518 z"
       id="path9473" />
    <path
       style="fill:url(#linearGradient10709);fill-opacity:1;stroke-width:0.500999;paint-order:markers fill stroke"
       d="m 162.54578,55.750363 c -0.19663,-1.10522 1.69108,-2.24497 5.8991,-0.0691 1.21915,0.58714 1.02251,0.89799 1.53377,0.86345 0.51125,-0.0345 0.94385,-0.31084 0.78655,-0.86345 -0.15732,-0.55261 -9.79251,-5.31886 -9.08462,-0.41446 0.23596,0.86345 0.8652,0.48354 0.8652,0.48354 z"
       id="path9475" />
    <path
       style="fill:#463d36;fill-opacity:1;stroke-width:0.500998;paint-order:markers fill stroke"
       d="m 164.55538,56.199203 c 0.1868,0.14479 0.45226,0.21719 0.98318,0.41627 0.53092,0.19909 2.22199,0.80541 2.34981,0.85065 0.12781,0.0453 -2.88073,-1.25787 -3.19535,-1.30312 -0.31462,-0.0453 -0.13764,0.0362 -0.13764,0.0362 z"
       id="path10711" />
    <path
       style="fill:#463d36;fill-opacity:1;stroke-width:0.500998;paint-order:markers fill stroke"
       d="m 164.89827,58.870493 c 0,-0.2188 0.46528,-0.19228 0.98318,-0.41627 0.53092,-0.22962 1.97171,-0.92141 2.09953,-0.96666 0.12781,-0.0453 -2.63045,1.37388 -2.94507,1.41913 -0.31462,0.0453 -0.13764,-0.0362 -0.13764,-0.0362 z"
       id="path10711-4"
       sodipodi:nodetypes="sscccs" />
    <path
       style="fill:#a96f53;fill-opacity:1;stroke-width:0.500999;paint-order:markers fill stroke"
       d="m 181.92823,60.514163 c 0.23596,-0.41446 1.7304,-5.87147 6.44968,-3.93734 1.96636,1.03614 -0.15731,6.49315 -0.15731,6.49315 0,0 -0.0787,0.96706 -0.78655,1.1743 -0.70789,0.20722 1.25848,-3.79919 -0.78654,-5.94054 -2.04502,-2.14137 -4.71928,2.21043 -4.71928,2.21043 z"
       id="path15364" />
    <path
       style="fill:#6d4a2a;fill-opacity:1;stroke-width:0.500999;paint-order:markers fill stroke"
       d="m 174.23008,46.436973 c 1.49444,1.17429 -1.89768,4.40656 -0.79656,5.44269 1.10117,1.03614 4.64063,1.31245 4.32601,5.18071 -0.31462,3.86827 -0.39327,4.28272 -0.39327,4.28272 0,0 2.98887,1.24337 3.69676,-1.03614 0.7079,-2.27951 9.12395,-3.79918 8.73067,-1.7269 -0.39327,2.07228 0.94386,6.42407 -0.62924,8.70358 -1.57309,2.27951 -0.0787,3.24657 0.62924,3.31566 0.70789,0.0691 19.17262,-10.03824 8.10143,-25.76538 -8.56844,-12.17187 -17.49286,-10.68624 -20.74315,-8.94781 -1.11534,0.59654 -3.51698,4.54145 -3.61348,5.8365 -0.28524,1.47099 -0.51601,2.53625 0.69159,4.71437 z"
       id="path18165"
       sodipodi:nodetypes="csscsssssscc" />
    <path
       style="fill:#ed9d79;fill-opacity:1;stroke-width:0.500999;paint-order:markers fill stroke"
       d="m 182.43948,59.685243 c 1.06184,-0.75983 0.90453,3.24658 0.47193,4.24818 -0.4326,1.00161 -0.94385,2.24498 -0.94385,2.24498 0,0 4.67995,-0.82892 5.6238,-2.1759 0.94386,-1.34698 1.76973,-5.11163 1.76973,-5.11163 l -1.21914,-2.65943 -2.83157,-0.0691 -2.51695,1.79598 z"
       id="path16313" />
    <path
       style="fill:#754d39;fill-opacity:1;stroke-width:0.500999;paint-order:markers fill stroke"
       d="m 182.30183,58.925413 c 0.23597,0.41446 1.17982,0.82892 1.49444,0.98433 0.31462,0.15543 0.60958,0.62169 0.60958,0.62169 0,0 -1.25848,-0.51807 -1.75007,-0.46626 -0.49159,0.0518 -0.45227,0 -0.45227,0 0,0 0.4326,-0.77711 0.0983,-1.13976 z"
       id="path17026" />
    <path
       style="fill:#ffb99b;fill-opacity:1;stroke-width:0.500999;paint-order:markers fill stroke"
       d="m 183.38334,57.647503 c 0.70789,0 6.13506,1.89959 4.09004,5.45701 -1.49444,2.34859 0.66857,0.17269 0.66857,0.17269 0,0 2.04502,-5.52609 -4.75861,-5.6297 z"
       id="path17099" />
    <path
       style="fill:#ffb382;fill-opacity:1;stroke-width:0.500999;paint-order:markers fill stroke"
       d="m 181.53495,60.928623 c 0,-2.00321 1.5731,-5.59517 5.58448,-5.38794 4.01139,0.20723 4.1687,9.8088 -3.38215,11.19033 -1.7304,0.20722 -2.28098,-0.55261 -1.96636,-0.75985 0.31462,-0.20722 8.33739,-0.89798 6.52833,-8.42727 -0.8652,-2.9012 -6.0564,-0.13815 -5.97775,3.24658 0.15731,1.24336 -0.78655,0.13815 -0.78655,0.13815 z"
       id="path14354" />
    <path
       style="fill:#754d39;fill-opacity:1;stroke-width:0.500999;paint-order:markers fill stroke"
       d="m 183.10804,62.655523 c 0.47193,-0.51808 -0.0393,-1.55422 0.4326,-1.79598 0.47193,-0.24177 2.94955,0.93253 3.02821,1.51968 0.0786,0.58714 -0.11799,0.79437 -0.11799,0.79437 0,0 -3.38215,0.86345 -3.34282,-0.51807 z"
       id="path15429" />
    <path
       style="fill:#ba9f83;fill-opacity:1;stroke-width:0.500999;paint-order:markers fill stroke"
       d="m 160.88099,67.111953 c 0.55617,0.39075 4.78308,5.8613 2.61401,11.283 -0.44494,0.92803 3.5595,-5.4217 -2.61401,-11.283 z"
       id="path19523" />
    <path
       style="fill:#ffdbb6;fill-opacity:1;stroke-width:0.500999;paint-order:markers fill stroke"
       d="m 40.60468,88.305666 c -0.23596,0.73178 -2.018028,5.82543 -2.489958,6.33011 -0.47193,0.50469 1.49444,1.61498 1.33713,2.92716 -0.15731,1.31218 -1.80906,1.7664 -2.91023,2.472954 -1.10116,0.70655 -3.858258,2.35647 -3.773787,3.50038 0.09477,1.28343 4.088407,1.29411 4.245717,2.00066 0.15731,0.70654 0.45036,1.2866 -0.15731,1.51405 -0.47193,0.17662 0.31462,1.46988 1.17982,1.62759 1.43555,0.26168 0.66458,-0.59235 0.66458,-0.59235 0,0 -1.29382,0.21384 -1.52978,0.76899 -0.23597,0.55514 -0.0787,0.70655 -0.0787,0.70655 0,0 1.10117,0.68133 1.33714,0.93367 0.23596,0.25233 -0.0787,2.10704 -0.0787,2.66219 0,0.55515 0.7079,2.22059 2.20233,2.42247 1.49444,0.20187 4.44805,0.30459 22.86882,-6.11303 4.00444,-1.49883 10.804003,-6.09929 10.919112,-12.469244 0.107433,-5.94514 0.824061,-5.01025 -2.473191,-10.98917 -4.133966,-7.49614 -22.803301,-10.750637 -30.476523,0.8839 -0.25563,0.31543 -0.57021,0.68133 -0.78651,1.41312 z"
       id="path245-0"
       sodipodi:nodetypes="cssssssscscssscssccc" />
    <path
       style="fill:#ffa276;fill-opacity:1;stroke-width:0.500999;paint-order:markers fill stroke"
       d="m 37.977562,108.71359 c -0.34517,-0.42062 -1.21999,-0.081 -0.91006,0.86325 0.0893,0.17858 1.70332,-0.003 0.91006,-0.86325 z"
       id="path3813-5"
       sodipodi:nodetypes="ccc" />
    <path
       style="fill:#ffc78f;fill-opacity:1;stroke-width:0.500999;paint-order:markers fill stroke"
       d="m 33.617226,104.14135 c -0.0192,-0.14817 2.24793,-0.86526 3.66008,-0.34966 1.41217,0.51561 0.49954,1.48755 -0.77812,1.19124 -1.27767,-0.29634 -2.88196,-0.84158 -2.88196,-0.84158 z"
       id="path13596-7" />
    <path
       style="fill:#605244;fill-opacity:1;stroke-width:0.500999;paint-order:markers fill stroke"
       d="m 34.442706,104.15944 c 0.61255,-0.0342 2.21057,-0.35885 2.7166,0.2051 0.50603,0.56392 -0.18643,0.70066 -2.7166,-0.2051 z"
       id="path3815-0" />
    <path
       style="fill:#c0c0c0;fill-opacity:1;stroke-width:0.500999;paint-order:markers fill stroke"
       d="m 40.936269,96.257916 c 0,0 -0.57947,0.87885 -0.13169,1.36896 0.44776,0.49013 0.39509,0.43942 0.39509,0.43942 l 2.84468,-0.92953 z"
       id="path5914-0" />
    <ellipse
       style="fill:#47894d;fill-opacity:1;stroke-width:0.500999;paint-order:markers fill stroke"
       id="path8362-5"
       cx="41.453213"
       cy="97.198196"
       rx="0.35853019"
       ry="0.85446584" />
    <ellipse
       style="fill:#696969;fill-opacity:1;stroke-width:0.500999;paint-order:markers fill stroke"
       id="path8362-2-8"
       cx="41.440838"
       cy="97.178528"
       rx="0.26254013"
       ry="0.75886124" />
    <path
       style="fill:#ffa276;fill-opacity:1;stroke-width:0.500999;paint-order:markers fill stroke"
       d="m 37.102042,109.60591 c 0,0 0.92419,0.0379 1.3568,-0.0632 0.4326,-0.10093 0.44243,-0.34066 0.44243,-0.34066 0,0 -0.15731,-0.42268 -0.71773,-0.46684 -0.56041,-0.0441 -1.0815,0.87057 -1.0815,0.87057 z"
       id="path9333-5" />
    <path
       style="fill:#ffa276;fill-opacity:1;stroke-width:0.500999;paint-order:markers fill stroke"
       d="m 36.866082,107.0762 c 0,0 -0.4326,1.30586 1.86805,1.79163 0.20646,0.0379 0.15731,0.32804 0.15731,0.32804 0,0 -2.77258,-0.76334 -2.15317,-2.08182 0.059,-0.0757 0.12781,-0.0379 0.12781,-0.0379 z"
       id="path9473-3" />
    <path
       style="fill:url(#linearGradient20075);fill-opacity:1;stroke-width:0.500999;paint-order:markers fill stroke"
       d="m 38.946522,95.848806 c -0.19663,-0.80749 1.69108,-1.64022 5.8991,-0.0506 1.21915,0.42897 1.02251,0.65609 1.53377,0.63085 0.51125,-0.0252 0.94385,-0.2271 0.78655,-0.63085 -0.15732,-0.40375 -9.79251,-3.88607 -9.08462,-0.30282 0.23596,0.63086 0.8652,0.35329 0.8652,0.35329 z"
       id="path9475-6" />
    <path
       style="fill:#463d36;fill-opacity:1;stroke-width:0.500999;paint-order:markers fill stroke"
       d="m 40.622419,96.176736 c 0.1868,0.10578 0.45226,0.15867 0.98318,0.30414 0.53092,0.14546 2.22199,0.58843 2.34981,0.6215 0.12781,0.0331 -2.88073,-0.91902 -3.19535,-0.95208 -0.31462,-0.0332 -0.13764,0.0265 -0.13764,0.0265 z"
       id="path10711-1" />
    <path
       style="fill:#463d36;fill-opacity:1;stroke-width:0.500999;paint-order:markers fill stroke"
       d="m 40.965309,98.128436 c 0,-0.15988 0.46528,-0.14049 0.98318,-0.30414 0.53092,-0.16777 1.97171,-0.6732 2.09953,-0.70627 0.12781,-0.0332 -2.63045,1.00379 -2.94507,1.03685 -0.31462,0.0332 -0.13764,-0.0265 -0.13764,-0.0265 z"
       id="path10711-4-8"
       sodipodi:nodetypes="sscccs" />
    <path
       style="fill:#a96f53;fill-opacity:1;stroke-width:0.500999;paint-order:markers fill stroke"
       d="m 58.328972,99.329326 c 0.23596,-0.30281 1.7304,-4.2898 6.44968,-2.8767 1.96636,0.75702 -0.15731,4.744024 -0.15731,4.744024 0,0 -0.0787,0.70654 -0.78655,0.85796 -0.70789,0.1514 1.25848,-2.775754 -0.78654,-4.340274 -2.04502,-1.56452 -4.71928,1.61499 -4.71928,1.61499 z"
       id="path15364-6" />
    <path
       style="fill:#000000;fill-opacity:1;stroke-width:0.500999;paint-order:markers fill stroke"
       d="m 42.145446,94.841666 c 0.475994,0 3.004397,0.31972 4.02884,0.31972 1.024445,0 19.490848,0.95312 20.076329,1.26966 0.585478,0.31653 1.419736,1.52351 1.475354,2.09894 0.05562,0.57543 -0.19466,0.57543 -0.556173,0.57543 -0.361511,0 -0.670404,-1.05815 -0.919181,-1.46434 -0.24878,-0.40619 -0.220972,-0.61867 -0.971804,-0.67819 -0.750835,-0.0595 -19.437186,-1.27356 -19.994401,-1.27356 -0.557212,0 -0.991341,0.45094 -0.991341,0.45094 0,0 -0.573026,-1.01959 -2.147623,-1.2986 z"
       id="path24916" />
    <path
       style="fill:#ed9d79;fill-opacity:1;stroke-width:0.500999;paint-order:markers fill stroke"
       d="m 58.840222,98.723696 c 1.06184,-0.55515 0.90453,2.372014 0.47193,3.103804 -0.4326,0.7318 -0.94385,1.64023 -0.94385,1.64023 0,0 4.67995,-0.60562 5.6238,-1.58975 0.94386,-0.98414 1.76973,-3.734664 1.76973,-3.734664 l -1.21914,-1.94303 -2.83157,-0.0506 -2.51695,1.31218 z"
       id="path16313-0" />
    <path
       style="fill:#754d39;fill-opacity:1;stroke-width:0.500999;paint-order:markers fill stroke"
       d="m 58.702572,98.168546 c 0.23597,0.30281 1.17982,0.60563 1.49444,0.71919 0.31462,0.11354 0.60958,0.4542 0.60958,0.4542 0,0 -1.25848,-0.37851 -1.75007,-0.34066 -0.49159,0.0379 -0.45227,0 -0.45227,0 0,0 0.4326,-0.56776 0.0983,-0.83273 z"
       id="path17026-5" />
    <path
       style="fill:#ffb99b;fill-opacity:1;stroke-width:0.500999;paint-order:markers fill stroke"
       d="m 59.784082,97.234886 c 0.70789,0 6.13506,1.38788 4.09004,3.986994 -1.49444,1.71592 0.66857,0.12617 0.66857,0.12617 0,0 2.04502,-4.037454 -4.75861,-4.113164 z"
       id="path17099-4" />
    <path
       style="fill:#ffb382;fill-opacity:1;stroke-width:0.500999;paint-order:markers fill stroke"
       d="m 57.935692,99.632136 c 0,-1.46359 1.5731,-4.08793 5.58448,-3.93652 4.01139,0.15141 4.1687,7.166494 -3.38215,8.175854 -1.7304,0.1514 -2.28098,-0.40374 -1.96636,-0.55516 0.31462,-0.1514 8.33739,-0.65607 6.52833,-6.157124 -0.8652,-2.11966 -6.0564,-0.10093 -5.97775,2.37201 0.15731,0.908424 -0.78655,0.10094 -0.78655,0.10094 z"
       id="path14354-4" />
    <path
       style="fill:#754d39;fill-opacity:1;stroke-width:0.500999;paint-order:markers fill stroke"
       d="m 59.508782,100.89384 c 0.47193,-0.37851 -0.0393,-1.135534 0.4326,-1.312174 0.47193,-0.17664 2.94955,0.681334 3.02821,1.110304 0.0786,0.42898 -0.11799,0.58039 -0.11799,0.58039 0,0 -3.38215,0.63085 -3.34282,-0.37852 z"
       id="path15429-0" />
    <path
       style="fill:#ae7841;fill-opacity:1;stroke-width:0.500999;paint-order:markers fill stroke"
       d="m 37.164726,106.62233 c 0,0 3.22484,0.7855 3.460803,1.85152 0.235966,1.06603 0.550585,2.88948 0,3.56277 -0.550582,0.67327 -1.219147,1.43072 -1.612419,1.37462 -0.393274,-0.0562 -0.314618,-1.2063 -0.314618,-1.2063 l -0.314619,0.028 c 0,0 -0.58991,3.02976 2.04502,3.3103 2.634933,0.28053 3.932732,-5.24598 2.04502,-8.05131 -1.061836,-1.45877 -5.545153,-2.10399 -5.545153,-2.10399 z"
       id="path20160" />
    <path
       style="fill:#000000;fill-opacity:1;stroke-width:0.500999;paint-order:markers fill stroke"
       d="m 39.249074,96.831726 0.07866,0.67327 0.550582,-0.028 -0.07865,-0.72939 z"
       id="path24509" />
    <path
       style="fill:#000000;fill-opacity:1;stroke-width:0.591885;paint-order:markers fill stroke"
       id="path24832"
       clip-path="url(#clipPath24908)"
       inkscape:path-effect="#path-effect24912"
       sodipodi:type="arc"
       sodipodi:cx="41.963207"
       sodipodi:cy="174.03127"
       sodipodi:rx="2.8920968"
       sodipodi:ry="2.8920968"
       d="m 44.855304,174.03127 a 2.8920968,2.8920968 0 0 1 -2.892097,2.89209 2.8920968,2.8920968 0 0 1 -2.892097,-2.89209 2.8920968,2.8920968 0 0 1 2.892097,-2.8921 2.8920968,2.8920968 0 0 1 2.892097,2.8921 z"
       transform="matrix(0.89269198,0,0,0.80259648,4.6852268,-42.514035)" />
    <path
       style="fill:#e5c5a4;fill-opacity:1;stroke-width:0.500999;paint-order:markers fill stroke"
       d="m 33.465748,104.23304 c -0.01392,-0.42648 0.45884,-1.22988 1.682422,-1.2497 1.223579,-0.0199 1.654611,0.0794 1.654611,0.0794 0,0 -3.267514,-0.93231 -3.337033,1.17038 z"
       id="path25044" />
    <path
       style="fill:#9d6449;fill-opacity:1;stroke-width:0.500999;paint-order:markers fill stroke"
       d="m 37.405605,108.5356 c 0,0 0.521086,0.31697 0.904528,0.40813 0.383443,0.0911 0.383443,0.0911 0.383443,0.0911 0,0 -0.859965,-0.01 -1.287971,-0.49932 z"
       id="path25802" />
    <path
       style="fill:#3b2a00;fill-opacity:1;stroke-width:0.500999;paint-order:markers fill stroke"
       d="m 43.981847,124.25585 c -1.179819,0.61987 -8.720516,13.95905 -9.276688,30.42004 -0.55617,16.461 6.326462,24.47234 6.326462,24.47234 l -0.264181,0.51136 -1.593648,-0.35867 c 0,0 -5.711296,-7.25255 -6.133197,-14.30038 -0.504349,-8.42513 -0.83821,-19.77268 7.726845,-39.74014 1.056727,-1.70455 1.334812,-1.80195 1.334812,-1.80195 0,0 0.834261,-0.87662 2.725246,-0.92532 1.890987,-0.0487 -0.845651,1.72272 -0.845651,1.72272 z"
       id="path33953"
       sodipodi:nodetypes="cscccsccsc" />
    <path
       style="fill:#4a3c18;fill-opacity:1;stroke-width:0.500999;paint-order:markers fill stroke"
       d="m 43.866718,119.77905 c 3.129234,0.48212 21.247793,-1.72184 22.316386,-2.34171 1.068592,-0.61987 1.068592,-0.55099 1.068592,-0.55099 l 1.978295,4.4768 c 0,0 -14.961498,4.09901 -25.653452,2.73967 0.372527,-1.37747 0.290179,-4.32377 0.290179,-4.32377 z"
       id="path28510"
       sodipodi:nodetypes="cscccc" />
    <path
       style="fill:#1b1c24;fill-opacity:1;stroke-width:0.500999;paint-order:markers fill stroke"
       d="m 43.559078,124.08367 c 0,0 10.16718,1.61503 25.573156,-2.86547 0.278087,0.48701 0.166851,0.34091 0.166851,0.34091 0,0 -14.175937,4.74418 -25.740007,2.52456 z"
       id="path31235"
       sodipodi:nodetypes="cccc" />
    <path
       style="fill:#050507;fill-opacity:1;stroke-width:0.500999;paint-order:markers fill stroke"
       d="m 39.007442,178.94578 39.779692,-0.0974 c 0,0 0.434697,0.40561 0.299139,1.71422 -0.13556,1.3086 -0.13556,0.98145 -0.13556,0.98145 l -40.159346,0.43046 c 0,0 -0.652318,-1.51176 0.216075,-3.02872 z"
       id="path31741" />
    <ellipse
       style="fill:#646464;fill-opacity:1;stroke-width:0.501889;paint-order:markers fill stroke"
       id="path34394"
       cx="86.079849"
       cy="108.15349"
       rx="0.39774245"
       ry="0.71802068"
       transform="matrix(0.95433483,0.29873906,-0.37796985,0.9258179,0,0)" />
    <ellipse
       style="fill:#646464;fill-opacity:1;stroke-width:0.501397;paint-order:markers fill stroke"
       id="path34394-3"
       cx="69.892204"
       cy="124.28263"
       rx="0.40088755"
       ry="0.71098983"
       transform="matrix(0.98159558,0.19097152,-0.2459393,0.96928523,0,0)" />
    <ellipse
       style="fill:#646464;fill-opacity:1;stroke-width:0.501397;paint-order:markers fill stroke"
       id="path34394-8"
       cx="69.50769"
       cy="132.90356"
       rx="0.40088755"
       ry="0.71098983"
       transform="matrix(0.98159558,0.19097152,-0.2459393,0.96928523,0,0)" />
    <ellipse
       style="fill:#646464;fill-opacity:1;stroke-width:0.50108;paint-order:markers fill stroke"
       id="path34394-5"
       cx="50.435883"
       cy="146.80423"
       rx="0.40266973"
       ry="0.70695001"
       transform="matrix(0.99643724,0.08433759,-0.10971895,0.99396265,0,0)" />
    <ellipse
       style="fill:#646464;fill-opacity:1;stroke-width:0.501006;paint-order:markers fill stroke"
       id="path34394-56"
       cx="38.512638"
       cy="157.37192"
       rx="0.40306875"
       ry="0.70603985"
       transform="matrix(0.99970343,0.02435272,-0.03175393,0.99949572,0,0)" />
    <ellipse
       style="fill:#646464;fill-opacity:1;stroke-width:0.501436;paint-order:markers fill stroke"
       id="path34394-9"
       cx="-9.8906279"
       cy="170.96947"
       rx="0.40065357"
       ry="0.71151721"
       transform="matrix(0.97961538,-0.2008823,0.25836009,0.96604869,0,0)" />
    <ellipse
       style="fill:#646464;fill-opacity:1;stroke-width:0.502101;paint-order:markers fill stroke"
       id="path34394-86"
       cx="-41.066803"
       cy="177.38069"
       rx="0.3961972"
       ry="0.72142982"
       transform="matrix(0.9404065,-0.34005238,0.42654347,0.90446706,0,0)"
       inkscape:transform-center-x="-0.11123358" />
    <path
       style="fill:#2f260f;fill-opacity:1;stroke-width:0.500999;paint-order:markers fill stroke"
       d="m 52.517718,127.50531 c 2.170092,-2.29327 10.168268,-5.66147 13.808588,-0.0923 2.769409,4.23676 6.0911,24.00376 6.375505,35.09257 0.08942,3.48723 -7.876828,33.13489 -8.833031,33.13166 -5.830171,-0.0197 -14.804408,-1.29793 -14.804408,-1.29793 0.769922,-9.79484 5.319319,-27.29953 5.319319,-27.29953 0,0 -8.085419,-24.38095 -1.892068,-39.51866"
       id="path47294"
       sodipodi:nodetypes="csssscc" />
    <path
       style="fill:#ffdbb6;fill-opacity:1;stroke-width:0.500998;paint-order:markers fill stroke"
       d="m 47.752471,196.01944 c -1.283973,1.21816 -3.690035,3.35929 -4.090009,4.49131 -0.399967,1.13202 0.969844,2.13531 2.099406,1.16697 1.129561,-0.96834 3.791412,-2.99894 3.15665,-2.37658 -0.716267,0.70228 -3.356792,3.79705 -4.377115,4.52445 -1.020321,0.72742 -1.869178,1.66745 -2.217858,2.21882 -0.348683,0.55138 0.883457,2.17509 2.319274,0.87157 1.668857,-1.51509 4.954732,-4.75609 5.635903,-5.26075 0.839158,-0.62171 0.983714,-0.9719 0.983714,-0.9719 0,0 -2.768169,3.65175 -5.346502,5.70408 -2.642403,2.10332 0.524183,2.09518 1.964371,1.07072 1.591559,-1.13213 2.755472,-1.99413 4.101308,-4.19 1.345835,-2.19589 -0.613725,1.63094 -2.873588,3.72015 -2.217402,2.04994 0.04583,3.2656 1.944498,0.75857 2.050572,-2.7076 3.571594,-4.56487 3.571594,-4.56487 0,0 -3.173312,4.03353 -2.838324,4.42061 0.405304,0.46832 0.673494,1.00859 3.005595,-1.68853 2.332102,-2.69713 4.613235,-5.5598 5.242713,-7.21974 0.629477,-1.65995 2.810754,-4.67852 2.906668,-5.88239 0.09592,-1.20387 -12.556175,-1.04087 -12.556175,-1.04087 0,0 -0.828147,2.6207 -2.63213,4.24838 z"
       id="path48654"
       sodipodi:nodetypes="sssssssscssssscsssscss" />
    <path
       style="fill:#3b2f14;fill-opacity:1;stroke-width:0.500998;paint-order:markers fill stroke"
       d="m 47.896409,194.22862 v -7.36124 l 19.539961,2.7713 -2.193898,7.02127 z"
       id="path48022" />
    <path
       style="fill:#e3c2a1;fill-opacity:1;stroke-width:0.500999;paint-order:markers fill stroke"
       d="m 44.709404,199.87932 c -0.235964,0.15497 -1.258475,1.06755 -0.550582,1.63576 0.70789,0.56821 1.907373,-0.77483 1.907373,-0.77483 z"
       id="path48788" />
    <path
       style="fill:#e3c2a1;fill-opacity:1;stroke-width:0.500999;paint-order:markers fill stroke"
       d="m 43.379586,205.2703 c -0.250888,0.13581 -1.362659,0.96451 -0.715759,1.58597 0.646898,0.62148 1.978992,-0.62204 1.978992,-0.62204 z"
       id="path48788-2" />
    <path
       style="fill:#e3c2a1;fill-opacity:1;stroke-width:0.500999;paint-order:markers fill stroke"
       d="m 46.154908,206.75241 c -0.225857,0.0837 -1.258797,0.6393 -0.813843,1.21469 0.444954,0.57539 1.718033,-0.29438 1.718033,-0.29438 z"
       id="path48788-2-5" />
    <path
       style="fill:#e3c2a1;fill-opacity:1;stroke-width:0.500999;paint-order:markers fill stroke"
       d="m 49.01591,207.392 c -0.210583,0.12965 -1.129981,0.90147 -0.528029,1.41226 0.601952,0.5108 1.688339,-0.63195 1.688339,-0.63195 z"
       id="path48788-2-5-4" />
    <path
       style="fill:#e3c2a1;fill-opacity:1;stroke-width:0.500999;paint-order:markers fill stroke"
       d="m 52.395857,206.60313 c -0.145471,0.12841 -0.743795,0.84854 -0.170355,1.16452 0.573444,0.31599 1.23918,-0.71374 1.23918,-0.71374 z"
       id="path48788-2-5-4-9" />
    <path
       style="fill:#e6b88a;fill-opacity:1;stroke-width:0.500999;paint-order:markers fill stroke"
       d="m 45.760353,198.3641 c 0.12887,0.75761 0.856427,1.2053 1.171045,1.36026 0.314619,0.15496 0.432599,0.15496 0.432599,0.15496 0,0 -1.603644,-1.08476 -1.603644,-1.51522 z"
       id="path49445" />
    <path
       style="fill:#e6b88a;fill-opacity:1;stroke-width:0.500999;paint-order:markers fill stroke"
       d="m 47.669839,199.63827 c -0.12887,-0.75762 -0.856427,-1.2053 -1.171045,-1.36026 -0.314619,-0.15497 -0.432599,-0.15497 -0.432599,-0.15497 0,0 1.603644,1.08477 1.603644,1.51523 z"
       id="path49445-6" />
    <path
       style="fill:#e6b88a;fill-opacity:1;stroke-width:0.500999;paint-order:markers fill stroke"
       d="m 44.235561,204.06665 c 0.12887,0.75761 0.856427,1.20529 1.171045,1.36026 0.314619,0.15496 0.432599,0.15496 0.432599,0.15496 0,0 -1.603644,-1.08476 -1.603644,-1.51522 z"
       id="path49445-2" />
    <path
       style="fill:#e6b88a;fill-opacity:1;stroke-width:0.500999;paint-order:markers fill stroke"
       d="m 46.145047,205.34081 c -0.12887,-0.75761 -0.856427,-1.20529 -1.171045,-1.36026 -0.314619,-0.15496 -0.432599,-0.15496 -0.432599,-0.15496 0,0 1.603644,1.08476 1.603644,1.51522 z"
       id="path49445-6-0" />
    <path
       style="fill:#e6b88a;fill-opacity:1;stroke-width:0.500999;paint-order:markers fill stroke"
       d="m 46.890623,201.58347 c 0.12887,0.75762 0.856427,1.2053 1.171045,1.36026 0.314619,0.15497 0.432599,0.15497 0.432599,0.15497 0,0 -1.603644,-1.08477 -1.603644,-1.51523 z"
       id="path49445-2-9" />
    <path
       style="fill:#e6b88a;fill-opacity:1;stroke-width:0.500999;paint-order:markers fill stroke"
       d="m 48.800109,202.85764 c -0.12887,-0.75761 -0.856427,-1.2053 -1.171045,-1.36026 -0.314619,-0.15496 -0.432599,-0.15496 -0.432599,-0.15496 0,0 1.603644,1.08476 1.603644,1.51522 z"
       id="path49445-6-0-4" />
    <path
       style="fill:#e6b88a;fill-opacity:1;stroke-width:0.500999;paint-order:markers fill stroke"
       d="m 46.848194,205.80651 c 0.158226,0.68371 0.813068,1.05827 1.093837,1.18509 0.280769,0.12681 0.382438,0.12148 0.382438,0.12148 0,0 -1.449472,-0.91479 -1.476275,-1.30657 z"
       id="path49445-2-9-6" />
    <path
       style="fill:#e6b88a;fill-opacity:1;stroke-width:0.500999;paint-order:markers fill stroke"
       d="m 48.573016,206.87986 c -0.158226,-0.68371 -0.813068,-1.05827 -1.093836,-1.18508 -0.280769,-0.12682 -0.382438,-0.12149 -0.382438,-0.12149 0,0 1.449472,0.9148 1.476274,1.30657 z"
       id="path49445-6-0-4-6" />
    <path
       style="fill:#e6b88a;fill-opacity:1;stroke-width:0.500999;paint-order:markers fill stroke"
       d="m 49.189286,203.44432 c 0.244886,0.62569 0.964838,0.90557 1.269483,0.99379 0.304647,0.0882 0.408833,0.072 0.408833,0.072 0,0 -1.603838,-0.70013 -1.678316,-1.06573 z"
       id="path49445-2-9-6-2" />
    <path
       style="fill:#e6b88a;fill-opacity:1;stroke-width:0.500999;paint-order:markers fill stroke"
       d="m 51.095977,204.26313 c -0.244888,-0.62569 -0.96484,-0.90557 -1.269485,-0.99379 -0.304647,-0.0882 -0.408832,-0.072 -0.408832,-0.072 0,0 1.603837,0.70013 1.678317,1.06574 z"
       id="path49445-6-0-4-6-2" />
    <path
       style="fill:#e6b88a;fill-opacity:1;stroke-width:0.500999;paint-order:markers fill stroke"
       d="m 52.772645,205.79339 c 0.201952,0.55043 0.795682,0.79664 1.046916,0.87424 0.251237,0.0776 0.337157,0.0633 0.337157,0.0633 0,0 -1.322653,-0.61591 -1.384073,-0.93753 z"
       id="path49445-2-9-6-2-1" />
    <path
       style="fill:#e6b88a;fill-opacity:1;stroke-width:0.500999;paint-order:markers fill stroke"
       d="m 54.345054,206.51371 c -0.201954,-0.55043 -0.795684,-0.79665 -1.046918,-0.87425 -0.251236,-0.0776 -0.337156,-0.0633 -0.337156,-0.0633 0,0 1.322652,0.61592 1.384074,0.93754 z"
       id="path49445-6-0-4-6-2-9" />
    <path
       style="fill:#e6b88a;fill-opacity:1;stroke-width:0.500999;paint-order:markers fill stroke"
       d="m 54.03762,204.16673 c 0.291702,0.51864 0.920167,0.68619 1.18166,0.73078 0.261492,0.0446 0.344105,0.0194 0.344105,0.0194 0,0 -1.411292,-0.43993 -1.525762,-0.75022 z"
       id="path49445-2-9-6-2-1-2" />
    <path
       style="fill:#e6b88a;fill-opacity:1;stroke-width:0.500999;paint-order:markers fill stroke"
       d="m 55.713419,204.67796 c -0.291706,-0.51866 -0.920171,-0.68621 -1.181664,-0.73079 -0.261491,-0.0446 -0.344104,-0.0194 -0.344104,-0.0194 0,0 1.411291,0.43992 1.525765,0.75023 z"
       id="path49445-6-0-4-6-2-9-5" />
    <path
       style="fill:#e6b88a;fill-opacity:1;stroke-width:0.500999;paint-order:markers fill stroke"
       d="m 49.668556,206.4474 c 0.210949,0.57644 0.88522,0.848 1.171586,0.93533 0.286368,0.0873 0.385914,0.0748 0.385914,0.0748 0,0 -1.499421,-0.67487 -1.557496,-1.01016 z"
       id="path49445-2-9-6-2-1-2-0" />
    <path
       style="fill:#e6b88a;fill-opacity:1;stroke-width:0.500999;paint-order:markers fill stroke"
       d="m 51.451581,207.23738 c -0.210951,-0.57646 -0.885223,-0.84802 -1.171588,-0.93534 -0.286368,-0.0873 -0.385913,-0.0749 -0.385913,-0.0749 0,0 1.49942,0.67488 1.557498,1.01017 z"
       id="path49445-6-0-4-6-2-9-5-8" />
    <path
       style="fill:#e6b88a;fill-opacity:1;stroke-width:0.500999;paint-order:markers fill stroke"
       d="m 51.490436,204.4444 c 0.184267,0.47311 0.773253,0.69599 1.023398,0.76766 0.250147,0.0716 0.337102,0.0614 0.337102,0.0614 0,0 -1.309767,-0.55388 -1.360497,-0.82906 z"
       id="path49445-2-9-6-2-1-2-0-0" />
    <path
       style="fill:#e6b88a;fill-opacity:1;stroke-width:0.500999;paint-order:markers fill stroke"
       d="m 53.047936,205.09277 c -0.184269,-0.47312 -0.773256,-0.69599 -1.023401,-0.76767 -0.250146,-0.0716 -0.337101,-0.0615 -0.337101,-0.0615 0,0 1.309767,0.5539 1.360499,0.82908 z"
       id="path49445-6-0-4-6-2-9-5-8-3" />
    <path
       style="fill:#eaa55d;fill-opacity:1;stroke-width:0.500999;paint-order:markers fill stroke"
       d="m 220.30893,139.20451 c 0.71706,-0.39327 23.57334,-15.14195 34.19172,10.56976 10.61838,25.7117 10.61838,25.7117 10.61838,25.7117 l -14.47246,-48.63024 -29.28688,3.61812 z"
       id="path50487" />
    <path
       style="fill:#ffe6cb;fill-opacity:1;stroke-width:0.500999;paint-order:markers fill stroke"
       d="m 48.613563,111.44244 c -0.23596,0.73178 -2.018028,5.82543 -2.489958,6.33011 -0.47193,0.50469 1.49444,1.61498 1.33713,2.92716 -0.15731,1.31218 -1.80906,1.7664 -2.91023,2.47295 -1.10116,0.70655 -3.858258,2.35647 -3.773787,3.50038 0.09477,1.28343 4.088407,1.29411 4.245717,2.00066 0.15731,0.70654 0.45036,1.2866 -0.15731,1.51405 -0.47193,0.17662 0.31462,1.46988 1.17982,1.62759 1.43555,0.26168 0.66458,-0.59235 0.66458,-0.59235 0,0 -1.29382,0.21384 -1.52978,0.76899 -0.23597,0.55514 -0.0787,0.70655 -0.0787,0.70655 0,0 1.10117,0.68133 1.33714,0.93367 0.23596,0.25233 -0.0787,2.10704 -0.0787,2.66219 0,0.55515 0.7079,2.22059 2.20233,2.42247 1.49444,0.20187 4.44805,0.30459 22.86882,-6.11303 4.00444,-1.49883 10.804003,-6.09929 10.919112,-12.46924 0.107433,-5.94514 0.824061,-5.01025 -2.473191,-10.98917 -4.133966,-7.49614 -22.803301,-10.750637 -30.476523,0.8839 -0.25563,0.31543 -0.57021,0.68133 -0.78651,1.41312 z"
       id="path245-0-2"
       sodipodi:nodetypes="cssssssscscssscssccc"
       clip-path="url(#clipPath50489)"
       transform="translate(-8.0088832,-23.136774)" />
    <path
       style="fill:#483628;fill-opacity:1;stroke-width:0.500999;paint-order:markers fill stroke"
       d="m 48.84975,269.70231 c 0,0 -10.788205,-0.15729 -11.640891,2.51696 -0.852683,2.67425 -1.796539,4.24735 0.09117,7.15757 6.371027,1.02251 25.550248,2.12367 29.640289,1.0225 4.090042,-1.10114 2.123677,-10.14643 2.123677,-10.14643 z"
       id="path50586-8"
       sodipodi:nodetypes="cscscc" />
  </g>
</svg>
